<?xml version="1.0" standalone="no"?>
<!DOCTYPE svg PUBLIC "-//W3C//DTD SVG 20010904//EN"
 "http://www.w3.org/TR/2001/REC-SVG-20010904/DTD/svg10.dtd">
<svg version="1.0" xmlns="http://www.w3.org/2000/svg"
 width="503.000000pt" height="496.000000pt" viewBox="0 0 503.000000 496.000000"
 preserveAspectRatio="xMidYMid meet">

<g transform="translate(0.000000,496.000000) scale(0.100000,-0.100000)"
fill="#000000" stroke="none">
<path d="M2455 3379 c-220 -33 -394 -144 -509 -328 -98 -155 -130 -368 -82
-544 24 -89 73 -182 101 -195 14 -7 25 -10 25 -7 0 2 -15 33 -34 67 -58 105
-79 201 -74 337 8 190 62 315 195 448 91 90 229 164 344 183 148 25 295 3 428
-64 30 -16 60 -25 70 -21 14 6 14 8 -4 22 -102 76 -314 124 -460 102z"/>
<path d="M2090 2665 l0 -285 75 0 75 0 0 162 0 162 91 -132 c78 -112 94 -130
109 -122 17 9 138 140 152 164 3 6 8 41 9 77 2 72 0 77 -85 192 l-51 67 -5
-157 -5 -158 -46 65 c-25 36 -74 107 -108 158 l-62 92 -74 0 -75 0 0 -285z"/>
<path d="M3197 2824 c4 -22 8 -93 7 -159 0 -103 -4 -130 -26 -193 -138 -386
-572 -571 -920 -393 -33 17 -72 31 -86 31 -26 -1 -27 -1 -7 -16 40 -32 162
-85 230 -99 347 -73 688 119 813 460 24 63 33 134 33 239 -1 108 -12 155 -39
164 -10 3 -11 -4 -5 -34z"/>
<path d="M2754 2748 c-22 -25 -58 -79 -60 -90 -1 -5 -2 -12 -3 -18 0 -5 -7
-10 -15 -10 -8 0 -16 -4 -18 -9 -11 -32 -180 -205 -249 -257 -54 -41 -165 -93
-232 -110 -145 -38 -287 18 -370 146 -19 30 -27 37 -22 20 27 -100 99 -182
200 -230 64 -31 78 -34 165 -34 74 0 109 5 157 22 69 26 144 65 195 101 57 42
239 231 233 241 -3 6 -2 10 3 10 13 0 110 132 112 150 0 3 -9 6 -20 6 -11 0
-19 -5 -16 -12 2 -6 0 -17 -6 -25 -8 -12 -9 -11 -5 2 3 9 -4 21 -14 28 -11 6
-17 16 -14 21 3 5 1 11 -4 14 -10 7 -9 25 2 44 13 19 2 14 -19 -10z m-37 -83
c0 -8 -4 -12 -9 -9 -5 3 -6 10 -3 15 9 13 12 11 12 -6z m53 -39 c0 -3 -4 -8
-10 -11 -5 -3 -10 -1 -10 4 0 6 5 11 10 11 6 0 10 -2 10 -4z"/>
<path d="M2785 2739 c-4 -6 -5 -12 -2 -15 2 -3 7 2 10 11 7 17 1 20 -8 4z"/>
<path d="M2808 2703 c7 -3 16 -2 19 1 4 3 -2 6 -13 5 -11 0 -14 -3 -6 -6z"/>
<path d="M2835 2565 l-38 -56 44 -64 44 -65 83 0 c92 0 89 -4 37 65 -16 22
-50 71 -75 108 -25 37 -48 67 -51 67 -3 0 -23 -25 -44 -55z"/>
<path d="M1830 1665 c0 -118 1 -125 20 -125 17 0 19 8 22 86 l3 87 68 -87 c37
-47 74 -86 82 -86 13 0 15 21 15 125 0 104 -2 125 -15 125 -12 0 -15 -16 -15
-85 0 -47 -4 -85 -9 -85 -4 0 -37 38 -72 85 -91 120 -99 117 -99 -40z"/>
<path d="M2140 1665 l0 -125 95 0 c78 0 95 3 95 15 0 12 -15 15 -75 15 l-75 0
0 40 0 40 65 0 c51 0 65 3 65 15 0 12 -14 15 -65 15 l-65 0 0 40 0 40 70 0
c56 0 70 3 70 15 0 12 -17 15 -90 15 l-90 0 0 -125z"/>
<path d="M2400 1785 c0 -3 18 -31 41 -61 l41 -55 -26 -37 c-14 -20 -35 -49
-46 -64 l-22 -28 25 0 c18 0 32 12 53 45 15 25 32 45 36 45 5 0 23 -20 40 -45
23 -32 39 -45 56 -45 l24 0 -24 33 c-13 17 -35 46 -48 64 l-23 32 29 41 c62
87 59 80 36 80 -14 0 -32 -16 -53 -47 l-32 -46 -24 29 c-13 16 -26 37 -29 47
-5 15 -54 26 -54 12z"/>
<path d="M2690 1691 c0 -92 2 -100 26 -124 36 -36 76 -43 122 -20 47 23 61 61
61 166 1 71 -1 77 -19 77 -19 0 -20 -7 -20 -90 0 -77 -3 -93 -20 -110 -25 -25
-61 -26 -91 -1 -21 17 -24 29 -27 110 -3 70 -7 91 -18 91 -11 0 -14 -21 -14
-99z"/>
<path d="M3000 1664 c0 -114 2 -125 18 -122 15 3 17 14 14 81 -2 42 0 77 5 77
4 0 24 -28 43 -63 20 -34 41 -62 48 -62 7 0 31 32 52 70 l40 70 0 -87 c0 -81
2 -88 20 -88 19 0 20 7 20 125 0 116 -1 125 -19 125 -14 0 -31 -22 -61 -77
-23 -43 -45 -81 -48 -85 -4 -4 -27 31 -52 78 -30 57 -50 84 -62 84 -16 0 -18
-12 -18 -126z"/>
</g>
</svg>
